<?xml version="1.0" standalone="no"?>
<!DOCTYPE svg PUBLIC "-//W3C//DTD SVG 20010904//EN"
 "http://www.w3.org/TR/2001/REC-SVG-20010904/DTD/svg10.dtd">
<svg version="1.0" xmlns="http://www.w3.org/2000/svg"
 width="519.000000pt" height="519.000000pt" viewBox="0 0 519.000000 519.000000"
 preserveAspectRatio="xMidYMid meet">
<metadata>
Created by potrace 1.11, written by Peter Selinger 2001-2013
</metadata>
<g transform="translate(0.000000,519.000000) scale(0.100000,-0.100000)"
fill="#000000" stroke="none">
<path d="M2400 5108 c-236 -16 -421 -52 -640 -124 -135 -45 -150 -51 -292
-119 -43 -20 -80 -36 -84 -35 -4 1 -10 -2 -13 -7 -3 -5 -33 -24 -66 -42 -86
-48 -156 -95 -270 -180 -309 -231 -558 -529 -733 -876 -143 -285 -217 -533
-255 -860 -13 -111 -15 -443 -3 -544 11 -94 37 -244 52 -306 24 -94 92 -309
109 -341 8 -16 15 -34 15 -39 0 -22 144 -301 201 -390 15 -22 27 -43 28 -47 1
-4 10 -18 21 -30 11 -13 50 -63 87 -113 169 -226 480 -500 728 -640 211 -120
471 -225 658 -266 31 -7 57 -16 57 -21 0 -5 5 -6 10 -3 6 4 43 0 83 -9 88 -18
131 -24 227 -31 41 -3 100 -8 130 -10 78 -7 199 -7 210 0 5 3 12 1 15 -5 4 -7
11 -8 18 -2 7 5 53 12 102 15 121 7 261 30 375 61 30 8 66 17 80 20 42 7 261
86 339 122 41 19 80 34 87 34 7 0 14 4 16 8 2 5 42 29 90 55 298 159 549 372
784 665 23 28 45 48 49 44 5 -4 5 -2 2 4 -4 6 6 29 22 51 135 187 269 458 343
693 12 41 26 77 31 78 4 2 5 7 3 11 -2 3 2 33 10 66 51 221 69 382 68 620 -2
425 -106 822 -314 1200 -49 89 -179 281 -247 366 -82 100 -271 288 -380 375
-80 65 -247 184 -258 184 -3 0 -34 18 -71 40 -175 107 -498 234 -691 271 -38
7 -60 16 -56 22 3 6 1 7 -6 3 -6 -4 -44 -2 -84 4 -40 6 -82 13 -94 15 -101 16
-353 22 -493 13z m415 -142 c22 -4 54 -9 70 -12 17 -3 41 -7 55 -10 119 -21
230 -48 230 -56 0 -5 4 -6 10 -3 9 6 240 -62 250 -74 3 -3 14 -8 25 -9 11 -2
23 -8 26 -14 3 -5 9 -9 13 -7 18 6 311 -134 347 -167 8 -8 19 -14 23 -14 5 0
45 -25 90 -57 241 -168 428 -363 600 -626 87 -133 223 -418 263 -552 8 -27 19
-59 24 -70 26 -63 61 -206 95 -395 18 -100 27 -493 13 -585 -4 -33 -11 -79
-14 -101 -24 -195 -134 -524 -230 -689 -12 -22 -35 -62 -50 -90 -36 -66 -136
-213 -198 -295 -98 -127 -248 -290 -267 -290 -6 0 -9 -4 -5 -9 3 -6 -1 -13 -9
-18 -8 -4 -29 -21 -48 -38 -157 -139 -335 -256 -526 -346 -107 -51 -202 -89
-202 -82 0 3 -6 1 -12 -5 -29 -23 -339 -103 -458 -117 -30 -4 -57 -8 -60 -10
-36 -21 -585 -21 -620 0 -3 2 -33 7 -65 10 -33 4 -64 9 -68 12 -4 2 -24 7 -45
9 -48 6 -179 40 -267 68 -358 118 -659 301 -915 556 -98 98 -122 127 -153 193
-20 43 -37 81 -37 85 0 3 64 -60 143 -141 153 -158 179 -174 224 -141 13 11
57 82 98 160 107 207 171 315 180 306 5 -4 5 -2 2 4 -8 14 31 77 43 69 6 -3 7
1 4 9 -4 10 -1 16 7 16 7 0 10 3 6 6 -3 3 15 36 40 72 105 151 225 295 360
431 79 78 148 152 154 163 14 26 -3 68 -45 111 -17 18 -60 65 -96 106 -36 40
-69 79 -75 85 -5 6 -39 45 -75 86 -36 41 -79 91 -97 110 -66 73 -82 94 -77
102 3 5 1 7 -5 6 -5 -2 -37 29 -71 67 -75 86 -122 135 -130 135 -11 0 -63
-327 -65 -413 -3 -100 -9 -112 -95 -196 -31 -31 -79 -85 -108 -121 -69 -88
-149 -163 -203 -190 -88 -44 -106 -78 -70 -128 24 -34 33 -64 23 -78 -4 -6
-29 -29 -57 -49 -27 -21 -52 -41 -55 -44 -12 -14 -106 -81 -114 -81 -5 0 -11
13 -13 30 -1 17 -11 45 -20 63 -9 18 -16 35 -15 39 1 5 -1 7 -6 6 -11 -3 -155
140 -195 194 -33 45 -69 142 -80 222 -6 37 -4 35 49 -46 44 -67 60 -84 77 -82
12 1 27 3 34 3 7 1 28 14 46 31 19 16 37 26 41 22 4 -4 6 -2 4 4 -2 6 11 25
27 41 17 16 89 92 160 168 72 76 148 158 171 181 50 54 193 210 217 238 92
106 178 191 204 202 59 26 91 3 260 -183 94 -104 156 -143 195 -122 28 15 79
56 78 64 0 3 24 47 53 98 62 105 99 178 117 224 17 46 16 123 -4 161 -9 17
-14 32 -12 32 11 0 -121 124 -156 148 -21 13 -38 29 -38 35 0 6 -3 7 -7 4 -3
-4 -16 -1 -27 6 -43 28 -153 58 -230 64 -108 7 -207 -15 -321 -71 -103 -51
-184 -76 -258 -82 -29 -2 -73 -5 -99 -8 -27 -2 -50 -1 -53 4 -2 4 -21 5 -41 3
-48 -5 -309 24 -334 37 -21 11 -24 27 -22 95 2 51 15 90 65 195 64 134 151
277 240 395 96 126 339 375 366 375 6 0 11 4 11 9 0 25 307 229 456 304 139
70 411 172 479 181 11 1 36 7 55 13 19 6 42 11 50 12 8 0 47 7 85 15 39 8 102
18 140 21 39 4 72 9 75 12 7 6 394 -3 445 -11z"/>
<path d="M3551 3993 c-1 -43 -4 -96 -6 -118 -2 -22 -7 -67 -10 -100 -8 -78
-44 -247 -56 -261 -5 -6 -6 -13 -3 -16 7 -8 -47 -143 -81 -205 -31 -54 -35
-101 -12 -114 9 -5 24 -17 33 -27 10 -9 20 -15 22 -12 3 3 11 -4 18 -15 20
-30 -6 -73 -100 -169 -62 -62 -93 -86 -131 -100 -65 -22 -76 -29 -89 -49 -14
-22 9 -46 66 -68 23 -9 47 -23 52 -31 11 -18 4 -26 -121 -132 -185 -156 -223
-236 -169 -351 27 -56 39 -71 116 -135 70 -58 191 -170 208 -193 8 -10 24 -28
36 -40 70 -68 256 -320 256 -347 0 -5 4 -10 8 -10 9 0 56 -89 50 -95 -2 -2
-42 3 -88 11 -96 16 -95 16 -247 34 -61 8 -110 17 -108 20 2 3 -38 4 -88 4
-261 -5 -583 -87 -871 -224 -39 -19 -76 -33 -83 -33 -7 0 -11 -3 -8 -5 3 -3
-25 -21 -61 -39 -97 -50 -288 -171 -425 -271 -67 -48 -147 -105 -178 -126 -62
-43 -111 -99 -111 -127 0 -31 43 -71 75 -72 23 0 40 12 75 50 49 55 192 166
365 285 126 86 285 181 285 170 0 -4 4 -2 8 4 13 21 238 123 370 168 224 77
444 112 639 102 65 -3 129 -6 142 -6 54 0 275 -52 386 -90 131 -45 298 -123
415 -193 62 -37 78 -43 97 -34 46 21 39 55 -21 96 -57 39 -206 121 -220 121
-7 0 -17 5 -24 12 -6 6 -17 13 -24 14 -21 3 -121 64 -152 92 -54 51 -80 102
-80 162 -1 117 60 184 263 286 224 111 382 153 616 161 83 3 158 10 167 15 52
26 88 185 83 358 -5 175 -39 294 -102 366 -16 18 -53 62 -83 99 -30 37 -61 74
-68 81 -7 8 -10 14 -6 14 4 0 -5 10 -20 21 -15 12 -25 23 -23 25 2 3 -15 26
-39 52 -23 26 -43 50 -44 54 0 4 -17 23 -36 42 -21 21 -33 40 -28 47 4 7 3 9
-3 6 -12 -8 -170 182 -165 198 2 5 0 7 -3 3 -4 -4 -43 36 -87 90 -78 95 -143
174 -163 196 -6 6 -54 65 -108 131 -139 171 -196 234 -241 267 -58 42 -63 39
-65 -49z"/>
<path d="M2447 3779 c-18 -16 -19 -35 -15 -253 4 -269 6 -260 -93 -329 -157
-109 -193 -177 -158 -300 13 -49 7 -66 -42 -102 -104 -79 -141 -150 -144 -285
-3 -91 14 -260 25 -260 9 0 226 252 305 354 28 37 77 97 113 141 10 11 50 63
91 115 41 52 80 100 88 106 7 6 13 14 13 18 0 4 26 39 58 79 54 68 57 75 56
127 0 57 -12 84 -174 412 -27 53 -46 99 -42 102 3 3 1 6 -4 6 -6 0 -16 15 -22
34 -18 48 -33 58 -55 35z"/>
<path d="M2450 2658 c-11 -18 -25 -49 -31 -69 -9 -27 -21 -40 -52 -55 -44 -20
-68 -48 -91 -106 -14 -33 -14 -38 3 -60 18 -22 25 -24 93 -21 40 1 73 3 73 4
0 0 14 3 30 5 17 2 48 12 69 21 29 13 41 14 43 6 8 -22 68 -51 143 -68 41 -9
80 -21 87 -27 7 -5 17 -8 23 -6 12 4 -10 36 -130 196 -126 169 -169 212 -211
212 -22 0 -34 -8 -49 -32z"/>
</g>
</svg>
